<mxfile host="65bd71144e">
    <diagram id="0T-t3U4B8Cgq48ALViRO" name="Page-1">
        <mxGraphModel dx="871" dy="613" grid="1" gridSize="10" guides="1" tooltips="1" connect="1" arrows="1" fold="1" page="1" pageScale="1" pageWidth="850" pageHeight="1100" math="0" shadow="0">
            <root>
                <mxCell id="0"/>
                <mxCell id="1" parent="0"/>
                <mxCell id="2" value="" style="whiteSpace=wrap;html=1;aspect=fixed;" vertex="1" parent="1">
                    <mxGeometry y="100" width="330" height="330" as="geometry"/>
                </mxCell>
                <mxCell id="4" value="&lt;font color=&quot;#9cf03c&quot; style=&quot;font-size: 18px;&quot;&gt;Call Stack&lt;/font&gt;" style="text;html=1;strokeColor=none;fillColor=none;align=center;verticalAlign=middle;whiteSpace=wrap;rounded=0;" vertex="1" parent="1">
                    <mxGeometry x="70" y="100" width="200" height="30" as="geometry"/>
                </mxCell>
                <mxCell id="5" value="&lt;h1&gt;&lt;font color=&quot;#2626ff&quot;&gt;Asyncronus in Javascript&lt;/font&gt;&lt;/h1&gt;&lt;div&gt;&lt;br&gt;&lt;/div&gt;" style="text;html=1;strokeColor=none;fillColor=none;spacing=5;spacingTop=-20;whiteSpace=wrap;overflow=hidden;rounded=0;fontSize=18;fontColor=#9CF03C;" vertex="1" parent="1">
                    <mxGeometry x="200" y="10" width="500" height="80" as="geometry"/>
                </mxCell>
                <mxCell id="8" value="" style="rounded=0;whiteSpace=wrap;html=1;fontSize=18;fontColor=#2626FF;" vertex="1" parent="1">
                    <mxGeometry x="90" y="140" width="150" height="270" as="geometry"/>
                </mxCell>
                <mxCell id="9" value="&lt;span style=&quot;font-size: 16px;&quot;&gt;&lt;font color=&quot;#f0f04d&quot;&gt;setTimeOut()&lt;/font&gt;&lt;/span&gt;" style="rounded=1;whiteSpace=wrap;html=1;fontSize=18;fontColor=#2626FF;" vertex="1" parent="1">
                    <mxGeometry x="90" y="340" width="150" height="70" as="geometry"/>
                </mxCell>
                <mxCell id="10" value="&lt;font color=&quot;#f0f04d&quot;&gt;setInterval()&lt;/font&gt;" style="rounded=1;whiteSpace=wrap;html=1;fontSize=16;fontColor=#2626FF;" vertex="1" parent="1">
                    <mxGeometry x="90" y="280" width="150" height="60" as="geometry"/>
                </mxCell>
                <mxCell id="11" value="" style="endArrow=classic;html=1;fontSize=16;fontColor=#F0F04D;fillColor=#0050ef;strokeColor=#001DBC;entryX=0;entryY=0.5;entryDx=0;entryDy=0;" edge="1" parent="1" target="17">
                    <mxGeometry width="50" height="50" relative="1" as="geometry">
                        <mxPoint x="240" y="390" as="sourcePoint"/>
                        <mxPoint x="510" y="260" as="targetPoint"/>
                    </mxGeometry>
                </mxCell>
                <mxCell id="13" value="" style="endArrow=classic;html=1;fontSize=16;fontColor=#F0F04D;fillColor=#0050ef;strokeColor=#001DBC;entryX=0;entryY=0.5;entryDx=0;entryDy=0;" edge="1" parent="1" target="19">
                    <mxGeometry width="50" height="50" relative="1" as="geometry">
                        <mxPoint x="240" y="320" as="sourcePoint"/>
                        <mxPoint x="530" y="200" as="targetPoint"/>
                    </mxGeometry>
                </mxCell>
                <mxCell id="15" value="" style="whiteSpace=wrap;html=1;aspect=fixed;fontSize=16;fontColor=#F0F04D;" vertex="1" parent="1">
                    <mxGeometry x="540" y="125" width="280" height="280" as="geometry"/>
                </mxCell>
                <mxCell id="16" value="&lt;font color=&quot;#9cf03c&quot;&gt;Web API&lt;/font&gt;" style="text;html=1;strokeColor=none;fillColor=none;align=center;verticalAlign=middle;whiteSpace=wrap;rounded=0;fontSize=16;fontColor=#F0F04D;" vertex="1" parent="1">
                    <mxGeometry x="620" y="140" width="130" height="30" as="geometry"/>
                </mxCell>
                <mxCell id="17" value="&lt;font color=&quot;#f0f04d&quot;&gt;setTimeOut()&lt;/font&gt;" style="rounded=1;whiteSpace=wrap;html=1;fontSize=16;fontColor=#9CF03C;" vertex="1" parent="1">
                    <mxGeometry x="540" y="270" width="160" height="60" as="geometry"/>
                </mxCell>
                <mxCell id="19" value="setInterval()" style="rounded=1;whiteSpace=wrap;html=1;fontSize=16;fontColor=#F0F04D;" vertex="1" parent="1">
                    <mxGeometry x="540" y="190" width="160" height="60" as="geometry"/>
                </mxCell>
                <mxCell id="20" value="" style="rounded=0;whiteSpace=wrap;html=1;fontSize=16;fontColor=#F0F04D;" vertex="1" parent="1">
                    <mxGeometry x="230" y="500" width="470" height="120" as="geometry"/>
                </mxCell>
                <mxCell id="21" value="&lt;font color=&quot;#9cf03c&quot;&gt;CallBack Queue&lt;/font&gt;" style="text;html=1;strokeColor=none;fillColor=none;align=center;verticalAlign=middle;whiteSpace=wrap;rounded=0;fontSize=16;fontColor=#F0F04D;" vertex="1" parent="1">
                    <mxGeometry x="420" y="500" width="120" height="30" as="geometry"/>
                </mxCell>
                <mxCell id="26" value="&lt;span style=&quot;color: rgb(240, 240, 77);&quot;&gt;setInterval()&lt;/span&gt;" style="rounded=1;whiteSpace=wrap;html=1;fontSize=16;fontColor=#9CF03C;" vertex="1" parent="1">
                    <mxGeometry x="520" y="540" width="140" height="60" as="geometry"/>
                </mxCell>
                <mxCell id="27" value="&lt;span style=&quot;color: rgb(240, 240, 77);&quot;&gt;setTimeOut()&lt;/span&gt;" style="rounded=1;whiteSpace=wrap;html=1;fontSize=16;fontColor=#9CF03C;" vertex="1" parent="1">
                    <mxGeometry x="270" y="540" width="140" height="60" as="geometry"/>
                </mxCell>
                <mxCell id="28" value="" style="edgeStyle=segmentEdgeStyle;endArrow=classic;html=1;curved=0;rounded=0;endSize=8;startSize=8;fontSize=16;fontColor=#9CF03C;entryX=0.364;entryY=1;entryDx=0;entryDy=0;entryPerimeter=0;" edge="1" parent="1" target="2">
                    <mxGeometry width="50" height="50" relative="1" as="geometry">
                        <mxPoint x="220" y="560" as="sourcePoint"/>
                        <mxPoint x="230" y="510" as="targetPoint"/>
                    </mxGeometry>
                </mxCell>
                <mxCell id="30" value="" style="edgeStyle=segmentEdgeStyle;endArrow=classic;html=1;curved=0;rounded=0;endSize=8;startSize=8;fontSize=16;fontColor=#9CF03C;" edge="1" parent="1">
                    <mxGeometry width="50" height="50" relative="1" as="geometry">
                        <mxPoint x="230" y="590" as="sourcePoint"/>
                        <mxPoint x="90" y="430" as="targetPoint"/>
                    </mxGeometry>
                </mxCell>
            </root>
        </mxGraphModel>
    </diagram>
</mxfile>